<svg width="36" height="36" viewBox="0 0 36 36" fill="none" xmlns="http://www.w3.org/2000/svg">
<g clip-path="url(#clip0_373_341)">
<path fill-rule="evenodd" clip-rule="evenodd" d="M0 18.1003C0 27.0492 6.49943 34.4906 14.9998 35.9996V22.9993H10.4999V17.9998H14.9998V13.9994C14.9998 9.4994 17.8993 7.00043 22.0003 7.00043C23.2993 7.00043 24.7002 7.19992 25.9992 7.39942V11.9999H23.6998C21.4993 11.9999 20.9998 13.0994 20.9998 14.5003V17.9998H25.7997L25.0002 22.9993H20.9998V35.9996C29.5002 34.4906 35.9996 27.0507 35.9996 18.1003C35.9996 8.14492 27.8997 0 17.9998 0C8.09992 0 0 8.14492 0 18.1003Z" fill="#483E36"/>
</g>
<defs>
<clipPath id="clip0_373_341">
<rect width="36" height="36" fill="white"/>
</clipPath>
</defs>
</svg>
