<svg width="17" height="13" viewBox="0 0 17 13" fill="none" xmlns="http://www.w3.org/2000/svg">
<path d="M1.7 13C1.2325 13 0.832433 12.841 0.4998 12.5231C0.1666 12.2046 0 11.8219 0 11.375V1.625C0 1.17812 0.1666 0.795708 0.4998 0.47775C0.832433 0.15925 1.2325 0 1.7 0H15.3C15.7675 0 16.1679 0.15925 16.5011 0.47775C16.8337 0.795708 17 1.17812 17 1.625V11.375C17 11.8219 16.8337 12.2046 16.5011 12.5231C16.1679 12.841 15.7675 13 15.3 13H1.7ZM8.5 7.3125L1.7 3.25V11.375H15.3V3.25L8.5 7.3125ZM8.5 5.6875L15.3 1.625H1.7L8.5 5.6875ZM1.7 3.25V1.625V11.375V3.25Z" fill="#726A64"/>
</svg>
