<svg width="25" height="21" viewBox="0 0 25 21" fill="none" xmlns="http://www.w3.org/2000/svg">
<path d="M2.5 20.5C1.8125 20.5 1.22417 20.2554 0.735 19.7663C0.245 19.2763 0 18.6875 0 18V3C0 2.3125 0.245 1.72417 0.735 1.235C1.22417 0.745 1.8125 0.5 2.5 0.5H22.5C23.1875 0.5 23.7763 0.745 24.2663 1.235C24.7554 1.72417 25 2.3125 25 3V18C25 18.6875 24.7554 19.2763 24.2663 19.7663C23.7763 20.2554 23.1875 20.5 22.5 20.5H2.5ZM12.5 11.75L2.5 5.5V18H22.5V5.5L12.5 11.75ZM12.5 9.25L22.5 3H2.5L12.5 9.25ZM2.5 5.5V3V18V5.5Z" fill="#483E36"/>
</svg>
