<svg width="22" height="28" viewBox="0 0 22 28" fill="none" xmlns="http://www.w3.org/2000/svg">
<path d="M10.9999 16.7997C14.0332 16.7997 16.4999 14.2881 16.4999 11.1997C16.4999 8.11123 14.0332 5.59961 10.9999 5.59961C7.96672 5.59961 5.5 8.11123 5.5 11.1997C5.5 14.2881 7.96672 16.7997 10.9999 16.7997ZM10.9999 8.39963C12.5165 8.39963 13.7499 9.65544 13.7499 11.1997C13.7499 12.7439 12.5165 13.9997 10.9999 13.9997C9.48333 13.9997 8.24997 12.7439 8.24997 11.1997C8.24997 9.65544 9.48333 8.39963 10.9999 8.39963Z" fill="#483E36"/>
<path d="M10.2025 27.7398C10.4352 27.909 10.714 28 11 28C11.286 28 11.5648 27.909 11.7975 27.7398C12.2155 27.4388 22.0398 20.2162 21.9999 11.2001C21.9999 5.02464 17.0651 0 11 0C4.93494 0 0.000121051 5.02464 0.000121051 11.1931C-0.0397535 20.2162 9.78451 27.4388 10.2025 27.7398ZM11 2.80002C15.5498 2.80002 19.2499 6.56745 19.2499 11.2071C19.2788 17.4203 13.2165 22.9994 11 24.8292C8.7849 22.998 2.72122 17.4175 2.75009 11.2001C2.75009 6.56745 6.45018 2.80002 11 2.80002Z" fill="#483E36"/>
</svg>
