<svg width="36" height="36" viewBox="0 0 36 36" fill="none" xmlns="http://www.w3.org/2000/svg">
<path fill-rule="evenodd" clip-rule="evenodd" d="M0 18C0 8.0589 8.0589 0 18 0C27.9411 0 36 8.0589 36 18C36 27.9411 27.9411 36 18 36C8.0589 36 0 27.9411 0 18ZM17.9878 18.289C20.6421 18.289 22.7997 16.2059 22.7997 13.6452C22.7997 11.0836 20.6421 9 17.9878 9C15.334 9 13.1759 11.0836 13.1759 13.6452C13.1759 16.2059 15.334 18.289 17.9878 18.289ZM19.947 22.0802C20.9265 21.8648 21.8711 21.4907 22.7412 20.9633C23.3996 20.5625 23.598 19.7223 23.1832 19.0867C22.7686 18.4497 21.8987 18.258 21.2392 18.6587C19.2681 19.8552 16.7304 19.8549 14.7604 18.6587C14.1008 18.258 13.2307 18.4497 12.817 19.0867C12.4021 19.7229 12.5999 20.5625 13.2584 20.9633C14.1285 21.4902 15.0731 21.8648 16.0526 22.0802L13.3623 24.6771C12.8124 25.2086 12.8124 26.0701 13.3629 26.6015C13.6384 26.8669 13.9989 26.9997 14.3593 26.9997C14.7204 26.9997 15.0814 26.8669 15.357 26.6015L17.9995 24.0496L20.6443 26.6015C21.1942 27.1328 22.0864 27.1328 22.637 26.6015C23.1881 26.0701 23.1881 25.208 22.637 24.6771L19.947 22.0802Z" fill="#483E36"/>
<path fill-rule="evenodd" clip-rule="evenodd" d="M17.9875 11.7227C19.0862 11.7227 19.9799 12.585 19.9799 13.6456C19.9799 14.7053 19.0862 15.5682 17.9875 15.5682C16.8896 15.5682 15.9951 14.7053 15.9951 13.6456C15.9951 12.585 16.8896 11.7227 17.9875 11.7227Z" fill="#483E36"/>
</svg>
