<svg width="24" height="25" viewBox="0 0 24 25" fill="none" xmlns="http://www.w3.org/2000/svg">
<path d="M18.5786 13.5393C18.4614 13.417 18.3222 13.32 18.169 13.2538C18.0158 13.1877 17.8516 13.1536 17.6858 13.1536C17.5199 13.1536 17.3557 13.1877 17.2025 13.2538C17.0493 13.32 16.9101 13.417 16.793 13.5393L14.7801 15.636C13.8469 15.3466 12.1055 14.6889 11.0018 13.5393C9.89808 12.3896 9.26668 10.5758 8.98887 9.60371L11.0018 7.50702C11.1191 7.38498 11.2123 7.24002 11.2758 7.08045C11.3393 6.92087 11.372 6.74982 11.372 6.57707C11.372 6.40431 11.3393 6.23326 11.2758 6.07369C11.2123 5.91411 11.1191 5.76916 11.0018 5.64711L5.95058 0.385665C5.8334 0.263408 5.69424 0.166416 5.54104 0.100239C5.38785 0.0340627 5.22363 0 5.05778 0C4.89193 0 4.72771 0.0340627 4.57451 0.100239C4.42132 0.166416 4.28215 0.263408 4.16498 0.385665L0.740273 3.95292C0.26041 4.45276 -0.00982893 5.13938 0.000273452 5.84046C0.0293178 7.71354 0.505393 14.2193 5.42778 19.3466C10.3502 24.4739 16.596 24.9684 18.3955 25H18.4308C19.0976 25 19.7277 24.7264 20.205 24.2292L23.6297 20.6619C23.7471 20.5399 23.8402 20.3949 23.9038 20.2354C23.9673 20.0758 24 19.9047 24 19.732C24 19.5592 23.9673 19.3882 23.9038 19.2286C23.8402 19.069 23.7471 18.9241 23.6297 18.802L18.5786 13.5393ZM18.4182 22.368C16.8422 22.3403 11.4501 21.8997 7.21337 17.4853C2.9628 13.0578 2.55113 7.42153 2.52587 5.81284L5.05778 3.17554L8.32337 6.57707L6.69058 8.27783C6.54215 8.43232 6.43302 8.62289 6.37305 8.83234C6.31308 9.04179 6.30416 9.2635 6.3471 9.47744C6.3774 9.6287 7.11866 13.2157 9.21491 15.3992C11.3112 17.5827 14.7548 18.3548 14.9 18.3864C15.1053 18.4324 15.3184 18.4238 15.5196 18.3615C15.7209 18.2992 15.9039 18.1852 16.0517 18.0299L17.6858 16.3291L20.9514 19.7307L18.4182 22.368Z" fill="#483E36"/>
</svg>
