<svg width="36" height="36" viewBox="0 0 36 36" fill="none" xmlns="http://www.w3.org/2000/svg">
<g clip-path="url(#clip0_373_337)">
<path d="M23.5258 0H12.475C2.3906 0 0 2.3906 0 12.475V23.5258C0 33.6101 2.3906 36.0007 12.475 36.0007H23.5258C33.6102 36.0007 36.0008 33.6101 36.0008 23.5258V12.475C36.0008 2.3906 33.5866 0 23.5258 0ZM29.063 25.6812H26.4496C25.4596 25.6812 25.1548 24.896 23.3739 23.0915C21.8271 21.5919 21.1419 21.3928 20.7606 21.3928C20.2217 21.3928 20.0687 21.5446 20.0687 22.2838V24.6451C20.0687 25.2785 19.8696 25.6587 18.1933 25.6587C15.4214 25.6587 12.3457 23.9825 10.1891 20.8595C6.93668 16.2831 6.04682 12.8552 6.04682 12.1465C6.04682 11.7651 6.19869 11.4085 6.93106 11.4085H9.55003C10.2127 11.4085 10.4647 11.7134 10.7223 12.4221C12.0172 16.1605 14.1738 19.4353 15.0636 19.4353C15.3921 19.4353 15.544 19.2834 15.544 18.4453V14.5843C15.4439 12.8035 14.5068 12.6505 14.5068 12.0182C14.5068 11.7134 14.7588 11.4085 15.1626 11.4085H19.2812C19.8381 11.4085 20.0428 11.7134 20.0428 12.3692V17.5779C20.0428 18.1404 20.2948 18.3396 20.4467 18.3396C20.7752 18.3396 21.0564 18.1404 21.6651 17.5307C23.546 15.4213 24.8938 12.169 24.8938 12.169C25.0693 11.7876 25.3741 11.431 26.0368 11.431H28.6557C29.441 11.431 29.6165 11.8349 29.441 12.3974C29.1125 13.9206 25.9074 18.4442 25.9074 18.4442C25.6318 18.9009 25.526 19.1 25.9074 19.6097C26.1886 19.991 27.1032 20.7819 27.7119 21.4907C28.8312 22.7619 29.6918 23.8284 29.9213 24.5664C30.179 25.2987 29.7987 25.6801 29.0596 25.6801L29.063 25.6812Z" fill="#483E36"/>
</g>
<defs>
<clipPath id="clip0_373_337">
<rect width="36" height="36" fill="white"/>
</clipPath>
</defs>
</svg>
