<svg id="Слой_3" data-name="Слой 3" xmlns="http://www.w3.org/2000/svg" viewBox="0 0 49.94 45.74"><defs><style>.cls-1,.cls-2,.cls-3{fill:none;stroke:#432918;stroke-width:2px;}.cls-1,.cls-3{stroke-linecap:round;}.cls-1{stroke-linejoin:round;}.cls-2,.cls-3{stroke-miterlimit:10;}</style></defs><path class="cls-1" d="M294.67,29.15c-1.8-3.66,0-8.61,0-8.61s5.91.43,8.29,4.13,2.54,7.84.35,9.26a4.16,4.16,0,0,1-4.15-.18" transform="translate(-268.52 -19.54)"/><path class="cls-2" d="M296.22,38.84a5.58,5.58,0,1,1,.51-7.88A5.58,5.58,0,0,1,296.22,38.84Z" transform="translate(-268.52 -19.54)"/><circle class="cls-2" cx="13.06" cy="17.67" r="5.58"/><circle class="cls-2" cx="20.83" cy="25.83" r="5.58"/><circle class="cls-2" cx="28.63" cy="34.02" r="5.58"/><circle class="cls-2" cx="6.58" cy="39.16" r="5.58"/><circle class="cls-2" cx="17.61" cy="36.59" r="5.58"/><circle class="cls-2" cx="31.75" cy="23.25" r="5.58"/><circle class="cls-2" cx="9.89" cy="28.44" r="5.58"/><path class="cls-3" d="M299.83,37.08c5.6-4.85,13-8.79,14.77-2.76.44,1.5-.5,4.58-4.61,3.83-3.67-1.46-2.54-4.28-1.94-6.07.71-2.1,3.58-5.61,9.41-2.71" transform="translate(-268.52 -19.54)"/></svg>