<svg id="Слой_4" data-name="Слой 4" xmlns="http://www.w3.org/2000/svg" viewBox="0 0 43.18 46.59"><defs><style>.cls-1,.cls-2,.cls-3{fill:none;stroke:#432918;stroke-width:2px;}.cls-1,.cls-2{stroke-miterlimit:10;}.cls-2,.cls-3{stroke-linecap:round;}.cls-3{stroke-linejoin:round;}</style></defs><path class="cls-1" d="M289,87.86a21,21,0,0,1,3.62-.31c11.71,0,23.26,10,20,21.19-3.15,10.68-5.86,16.7-15.25,18.87-1.55.36-3.05-1-4.71-1s-3.16,1.35-4.66,1c-9.45-2.13-11.76-8.47-15.29-18.91-2.26-6.68,1.2-13,6.87-17" transform="translate(-270.95 -82.11)"/><path class="cls-2" d="M286.29,96.51a8.59,8.59,0,0,0,11.7,0" transform="translate(-270.95 -82.11)"/><path class="cls-2" d="M296.62,83.11a13.54,13.54,0,0,0-3.24,4.44c-1.24,3.41-1.24,11.26-1.24,11.26" transform="translate(-270.95 -82.11)"/><path class="cls-3" d="M286.35,86.07c3.9,2,6.12,5.48,5,7.7s-5.25,2.38-9.15.35-5-7.7-5-7.7S282.46,84,286.35,86.07Z" transform="translate(-270.95 -82.11)"/></svg>