<svg id="Слой_5" data-name="Слой 5" xmlns="http://www.w3.org/2000/svg" viewBox="0 0 44.94 46.08"><defs><style>.cls-1,.cls-2{fill:none;stroke:#432918;stroke-width:2px;}.cls-1{stroke-miterlimit:10;}.cls-2{stroke-linecap:round;stroke-linejoin:round;}</style></defs><path class="cls-1" d="M286.25,153a16.39,16.39,0,0,0-9.45,6.73c-4.73,7.05-10,22.44-4.4,28.06s20.61.87,28.27-5.35a19.13,19.13,0,0,0,6.68-9.54" transform="translate(-268.98 -145.17)"/><path class="cls-2" d="M297.85,146.22c-1.68-.76-1.79,8.64-1.79,8.64s-7.6-5.28-9.55-3.85,4.56,8.84,7.95,9.86c-.63.72-6.18,6.69-4.57,7.86s10-2.42,10-2.42,8.65,8.23,10.19,7.77-2.71-8.76-2.71-8.76,5.46-.19,5.55-2c.15-2.65-9.32-4.87-9.32-4.87S302.63,148.36,297.85,146.22Z" transform="translate(-268.98 -145.17)"/><path class="cls-2" d="M282.13,164.36s.33-2.76,1.41-2.17C285.1,163,282.13,164.36,282.13,164.36Z" transform="translate(-268.98 -145.17)"/><path class="cls-2" d="M276.13,174.87s.33-2.76,1.41-2.16C279.09,173.55,276.13,174.87,276.13,174.87Z" transform="translate(-268.98 -145.17)"/><path class="cls-2" d="M284,174.87s.33-2.76,1.42-2.16C287,173.55,284,174.87,284,174.87Z" transform="translate(-268.98 -145.17)"/><path class="cls-2" d="M283.3,183.64s.33-2.76,1.41-2.17C286.27,182.32,283.3,183.64,283.3,183.64Z" transform="translate(-268.98 -145.17)"/><path class="cls-2" d="M293.73,177.59s.33-2.76,1.42-2.17C296.7,176.26,293.73,177.59,293.73,177.59Z" transform="translate(-268.98 -145.17)"/><path class="cls-2" d="M299.54,159a43.84,43.84,0,0,1,4-4.57,19.85,19.85,0,0,1,5.16-2.74" transform="translate(-268.98 -145.17)"/></svg>