<svg width="57" height="43" viewBox="0 0 57 43" fill="none" xmlns="http://www.w3.org/2000/svg">
<path d="M21 1H36C47.0457 1 56 9.95431 56 21V36C56 39.3137 53.3137 42 50 42H21C9.95431 42 1 33.0457 1 22V21C1 9.9543 9.9543 1 21 1Z" fill="#FFFAF5"/>
<path d="M24.5 18.2308V16.9231C24.5 15.8826 24.9214 14.8848 25.6716 14.149C26.4217 13.4133 27.4391 13 28.5 13V13C29.5609 13 30.5783 13.4133 31.3284 14.149C32.0786 14.8848 32.5 15.8826 32.5 16.9231V18.2308M21.1667 18.2308C20.9899 18.2308 20.8203 18.2997 20.6953 18.4223C20.5702 18.5449 20.5 18.7112 20.5 18.8846V27.7115C20.5 28.9473 21.5733 30 22.8333 30H34.1667C35.4267 30 36.5 28.9984 36.5 27.7626V18.8846C36.5 18.7112 36.4298 18.5449 36.3047 18.4223C36.1797 18.2997 36.0101 18.2308 35.8333 18.2308H21.1667Z" stroke="#483E36" stroke-width="2" stroke-linecap="round" stroke-linejoin="round"/>
<path d="M21 1H36C47.0457 1 56 9.95431 56 21V36C56 39.3137 53.3137 42 50 42H21C9.95431 42 1 33.0457 1 22V21C1 9.9543 9.9543 1 21 1Z" stroke="#483E36" stroke-width="2"/>
</svg>
