<svg width="126" height="49" viewBox="0 0 126 49" fill="none" xmlns="http://www.w3.org/2000/svg">
<path d="M0 21C0 9.40202 9.40202 0 21 0H28C39.598 0 49 9.40202 49 21V42C49 45.866 45.866 49 42 49H21C9.40202 49 0 39.598 0 28V21Z" fill="#C6DC93"/>
<g clip-path="url(#clip0_426_1580)">
<path d="M22.4384 12.9419C23.1971 12.81 23.9658 12.7442 24.7359 12.7451C32.1678 12.7451 39.4982 19.0918 37.4292 26.1936C35.43 32.9718 33.71 36.7925 27.7506 38.1697C26.7668 38.3982 25.8148 37.5351 24.7613 37.5351C23.7078 37.5351 22.7558 38.3919 21.8038 38.1697C15.8062 36.8179 14.3401 32.7941 12.0998 26.1683C10.6654 21.9287 12.8613 17.9176 16.4599 15.379" stroke="#432918" stroke-width="2" stroke-miterlimit="10"/>
<path d="M20.7188 18.4316C21.7275 19.3698 23.054 19.8913 24.4315 19.8913C25.8091 19.8913 27.1356 19.3698 28.1443 18.4316" stroke="#432918" stroke-width="2" stroke-miterlimit="10" stroke-linecap="round"/>
<path d="M27.2749 9.92773C26.404 10.7166 25.7042 11.6756 25.2186 12.7456C24.4316 14.9098 24.4316 19.8919 24.4316 19.8919" stroke="#432918" stroke-width="2" stroke-miterlimit="10" stroke-linecap="round"/>
<path d="M20.7569 11.8058C23.2321 13.0751 24.641 15.2838 23.9302 16.6927C23.2194 18.1017 20.5982 18.2032 18.123 16.9148C15.6478 15.6265 14.9497 12.0279 14.9497 12.0279C14.9497 12.0279 18.288 10.492 20.7569 11.8058Z" stroke="#432918" stroke-width="2" stroke-linecap="round" stroke-linejoin="round"/>
</g>
<path d="M58.64 21.28C58.2533 21.2533 57.9733 21.1667 57.8 21.02C57.6267 20.8867 57.54 20.6667 57.54 20.36C57.62 20.08 57.7 19.8467 57.78 19.66C57.8733 19.4733 57.9333 19.2933 57.96 19.12C58 18.96 58.04 18.8067 58.08 18.66C58.12 18.5133 58.1733 18.3333 58.24 18.12C58.3467 17.8 58.4667 17.4067 58.6 16.94C58.7467 16.4733 58.9 16.0067 59.06 15.54C59.22 15.06 59.36 14.6667 59.48 14.36C59.5867 14.0533 59.6733 13.7933 59.74 13.58C59.82 13.3667 59.9 13.16 59.98 12.96C60.06 12.76 60.1467 12.5267 60.24 12.26C60.24 12.26 60.2733 12.16 60.34 11.96C60.42 11.7467 60.5 11.5067 60.58 11.24C60.6733 10.96 60.7533 10.7133 60.82 10.5C60.9 10.2867 60.94 10.18 60.94 10.18C61.0867 9.87333 61.2133 9.58667 61.32 9.32C61.44 9.04 61.54 8.74667 61.62 8.44C61.5533 8.33333 61.5067 8.21333 61.48 8.08C61.4667 7.94667 61.4733 7.82667 61.5 7.72C61.5533 7.53333 61.6533 7.38667 61.8 7.28C61.9467 7.17333 62.14 7.14667 62.38 7.2C62.5667 7.24 62.8133 7.27333 63.12 7.3C63.44 7.32667 63.7267 7.34 63.98 7.34C64.2467 7.34 64.38 7.34 64.38 7.34C64.46 7.3 64.6933 7.24667 65.08 7.18C65.4667 7.11333 65.9333 7.04 66.48 6.96C67.0267 6.88 67.58 6.80667 68.14 6.74C68.7133 6.67333 69.22 6.61333 69.66 6.56C69.82 6.53333 69.98 6.53333 70.14 6.56C70.3133 6.58667 70.4667 6.61333 70.6 6.64C70.8933 6.69333 71.1333 6.84667 71.32 7.1C71.52 7.35333 71.5867 7.62 71.52 7.9C71.44 8.14 71.3333 8.27333 71.2 8.3C71.08 8.32667 70.86 8.26 70.54 8.1C70.42 8.28667 70.3533 8.4 70.34 8.44C70.3267 8.48 70.3133 8.54 70.3 8.62C70.3 8.7 70.2333 8.88667 70.1 9.18C70.0467 9.26 69.9667 9.42 69.86 9.66C69.7667 9.9 69.6667 10.1733 69.56 10.48C69.4667 10.7733 69.3867 11.0467 69.32 11.3C69.2533 11.5533 69.22 11.7333 69.22 11.84C69.2067 11.8533 69.1467 12.04 69.04 12.4C68.9467 12.76 68.8267 13.2067 68.68 13.74C68.56 14.14 68.4333 14.56 68.3 15C68.18 15.44 68.06 15.8733 67.94 16.3C67.82 16.7133 67.7133 17.0867 67.62 17.42C67.5267 17.7533 67.4533 18.0133 67.4 18.2C67.3467 18.3733 67.32 18.4467 67.32 18.42C67.3067 18.7133 67.2733 18.9933 67.22 19.26C67.18 19.5267 67.1533 19.7933 67.14 20.06C67.18 20.18 67.1733 20.28 67.12 20.36C67.08 20.44 67.0333 20.4867 66.98 20.5C66.8067 20.6467 66.56 20.72 66.24 20.72C65.92 20.72 65.6933 20.6333 65.56 20.46C65.4667 20.2733 65.4 20.12 65.36 20C65.32 19.88 65.3067 19.7667 65.32 19.66C65.3467 19.2733 65.3933 18.8933 65.46 18.52C65.5267 18.1333 65.5867 17.7667 65.64 17.42C65.72 17.0333 65.8067 16.6933 65.9 16.4C65.9933 16.0933 66.0533 15.96 66.08 16L66.48 14.56C66.6 14.2267 66.68 13.9467 66.72 13.72C66.76 13.48 66.8067 13.2333 66.86 12.98C66.9267 12.7267 67.0267 12.4067 67.16 12.02C67.2933 11.7 67.4 11.3733 67.48 11.04C67.5733 10.7067 67.66 10.3733 67.74 10.04C67.7933 9.86667 67.86 9.66 67.94 9.42C68.02 9.16667 68.1 8.94667 68.18 8.76C68.26 8.56 68.3133 8.46 68.34 8.46C68.0333 8.48667 67.78 8.52 67.58 8.56C67.3933 8.6 67.1933 8.64 66.98 8.68C66.78 8.70667 66.4933 8.74667 66.12 8.8C65.9333 8.81333 65.7 8.84667 65.42 8.9C65.1533 8.94 64.88 8.98 64.6 9.02C64.32 9.06 64.0867 9.09333 63.9 9.12C63.82 9.13333 63.7467 9.14667 63.68 9.16C63.6267 9.16 63.5867 9.16 63.56 9.16C63.5067 9.30667 63.3933 9.57333 63.22 9.96C63.0467 10.3467 62.86 10.7733 62.66 11.24C62.46 11.7067 62.28 12.1267 62.12 12.5C62.0533 12.6733 61.9867 12.8533 61.92 13.04C61.8533 13.2133 61.78 13.3867 61.7 13.56C61.6333 13.7333 61.5667 13.9133 61.5 14.1C61.4333 14.2733 61.3667 14.4533 61.3 14.64C61.2333 14.8133 61.1667 14.9867 61.1 15.16C60.9667 15.5867 60.8467 15.9667 60.74 16.3C60.6467 16.6333 60.5533 16.9267 60.46 17.18C60.38 17.4333 60.3067 17.66 60.24 17.86C60.1733 18.06 60.1067 18.2467 60.04 18.42C59.96 18.6733 59.88 18.92 59.8 19.16C59.7333 19.3867 59.6667 19.6667 59.6 20C59.5867 20.12 59.5667 20.24 59.54 20.36C59.5133 20.4667 59.4867 20.58 59.46 20.7C59.3667 20.9 59.26 21.0467 59.14 21.14C59.0333 21.2467 58.8667 21.2933 58.64 21.28ZM71.4303 20.36C71.257 20.36 71.117 20.3267 71.0103 20.26C70.917 20.1933 70.797 20.1 70.6503 19.98C70.397 19.7133 70.1903 19.4267 70.0303 19.12C69.8836 18.8133 69.8303 18.5467 69.8703 18.32C69.9103 18.2133 69.9236 18.1133 69.9103 18.02C69.9103 17.9133 69.9103 17.86 69.9103 17.86C69.8436 17.7933 69.8236 17.7533 69.8503 17.74C69.877 17.7133 69.9036 17.6733 69.9303 17.62C70.0103 17.62 70.037 17.5467 70.0103 17.4C69.9836 17.2933 70.0236 17.0667 70.1303 16.72C70.2503 16.36 70.4103 16.02 70.6103 15.7C70.6903 15.5667 70.8103 15.3933 70.9703 15.18C71.1303 14.9533 71.3036 14.7333 71.4903 14.52C71.6903 14.2933 71.8703 14.1133 72.0303 13.98C72.3636 13.7 72.6703 13.4733 72.9503 13.3C73.2436 13.1267 73.537 13.0067 73.8303 12.94C74.1236 12.8733 74.4236 12.84 74.7303 12.84C75.0503 12.84 75.3103 12.9467 75.5103 13.16C75.817 13.2933 76.0303 13.4733 76.1503 13.7C76.2836 13.9267 76.3703 14.22 76.4103 14.58C76.4503 14.98 76.4103 15.4733 76.2903 16.06C76.1703 16.6333 75.8436 17.3 75.3103 18.06C74.977 18.54 74.6503 18.9133 74.3303 19.18C74.0103 19.4467 73.657 19.6933 73.2703 19.92C72.9903 20.1067 72.6903 20.22 72.3703 20.26C72.0503 20.3 71.737 20.3333 71.4303 20.36ZM73.4703 17.92C73.7636 17.6667 73.9703 17.3867 74.0903 17.08C74.2236 16.7733 74.3636 16.4133 74.5103 16C74.5636 15.92 74.597 15.7867 74.6103 15.6C74.637 15.4133 74.6436 15.2333 74.6303 15.06C74.617 14.8733 74.5703 14.7667 74.4903 14.74C74.3703 14.6467 74.2503 14.6267 74.1303 14.68C74.0103 14.72 73.857 14.8067 73.6703 14.94C73.2703 15.2733 72.897 15.66 72.5503 16.1C72.217 16.5267 71.9836 17.0533 71.8503 17.68C71.8103 18.0133 71.8436 18.2667 71.9503 18.44C72.0703 18.6 72.257 18.6467 72.5103 18.58C72.777 18.5 73.097 18.28 73.4703 17.92ZM76.3705 20.74C76.1971 20.6867 76.0371 20.58 75.8905 20.42C75.7571 20.26 75.6505 20.1467 75.5705 20.08C75.5571 20.04 75.5371 20 75.5105 19.96C75.4971 19.92 75.4838 19.88 75.4705 19.84C75.4705 19.7067 75.4838 19.6133 75.5105 19.56C75.5505 19.5067 75.6371 19.4133 75.7705 19.28C75.8638 19.1333 75.9571 19.0533 76.0505 19.04C76.1438 19.0267 76.2305 19.0333 76.3105 19.06C76.5771 18.86 76.8305 18.6733 77.0705 18.5C77.3238 18.3133 77.5238 18.1133 77.6705 17.9C77.8571 17.62 78.0371 17.3333 78.2105 17.04C78.3971 16.7467 78.5771 16.4533 78.7505 16.16C78.8171 16.04 78.8905 15.9 78.9705 15.74C79.0505 15.58 79.1305 15.42 79.2105 15.26C79.2905 15.0867 79.3571 14.94 79.4105 14.82C79.2771 14.7933 79.1838 14.7667 79.1305 14.74C79.0771 14.7 79.0105 14.6533 78.9305 14.6C78.8905 14.4533 78.8371 14.2933 78.7705 14.12C78.7171 13.9467 78.6838 13.8133 78.6705 13.72C78.6705 13.3867 78.8305 13.18 79.1505 13.1C79.5505 13.0067 79.8971 12.9467 80.1905 12.92C80.4838 12.8933 80.7705 12.8467 81.0505 12.78C81.3171 12.7133 81.5971 12.6933 81.8905 12.72C82.1838 12.7333 82.4571 12.7933 82.7105 12.9C82.8438 12.9533 82.9638 13.0267 83.0705 13.12C83.1771 13.2133 83.2771 13.34 83.3705 13.5C83.5171 13.7133 83.6038 13.9467 83.6305 14.2C83.6705 14.4533 83.6838 14.68 83.6705 14.88C83.6705 15.0667 83.6771 15.1867 83.6905 15.24C83.6505 15.3867 83.5905 15.6133 83.5105 15.92C83.4305 16.2267 83.3371 16.5533 83.2305 16.9C83.1371 17.2467 83.0438 17.56 82.9505 17.84C82.8705 18.1067 82.8171 18.2867 82.7905 18.38C82.7371 18.5933 82.6638 18.8133 82.5705 19.04C82.4905 19.2533 82.4371 19.46 82.4105 19.66C82.3571 19.94 82.2438 20.1333 82.0705 20.24C81.8971 20.3333 81.7438 20.4133 81.6105 20.48C81.4638 20.5333 81.3305 20.52 81.2105 20.44C81.0905 20.36 80.9771 20.2733 80.8705 20.18C80.7771 19.9267 80.7238 19.74 80.7105 19.62C80.7105 19.4867 80.7505 19.3067 80.8305 19.08C80.8705 18.9733 80.9438 18.7333 81.0505 18.36C81.1571 17.9867 81.2771 17.5667 81.4105 17.1C81.5438 16.6333 81.6705 16.2067 81.7905 15.82C81.9105 15.42 81.9905 15.14 82.0305 14.98C82.0571 14.8467 82.0771 14.7333 82.0905 14.64C82.1038 14.5333 82.1038 14.4333 82.0905 14.34C81.9971 14.3133 81.8638 14.3 81.6905 14.3C81.5171 14.3 81.3571 14.3133 81.2105 14.34C81.1838 14.3533 81.1505 14.36 81.1105 14.36C81.0838 14.36 81.0571 14.3667 81.0305 14.38C80.9771 14.62 80.9105 14.86 80.8305 15.1C80.7505 15.3267 80.6505 15.5733 80.5305 15.84C80.4238 16.0933 80.2905 16.38 80.1305 16.7C79.9838 17.02 79.8038 17.38 79.5905 17.78C79.4571 18.0467 79.3238 18.2867 79.1905 18.5C79.0571 18.7133 78.9171 18.9133 78.7705 19.1L78.5305 19.42C78.4505 19.5 78.3638 19.5867 78.2705 19.68C78.1771 19.7733 78.0905 19.86 78.0105 19.94C77.9305 20.0067 77.8638 20.0667 77.8105 20.12L77.1905 20.6C77.0705 20.6933 76.9438 20.74 76.8105 20.74C76.6771 20.74 76.5305 20.74 76.3705 20.74ZM86.6677 20.86C85.9343 20.86 85.3677 20.6467 84.9677 20.22C84.581 19.7933 84.3877 19.14 84.3877 18.26C84.3877 17.78 84.4743 17.2533 84.6477 16.68C84.8343 16.1067 85.0743 15.5467 85.3677 15C85.6743 14.4533 86.0077 13.98 86.3677 13.58C86.7277 13.1667 87.0877 12.88 87.4477 12.72C87.581 12.6533 87.721 12.6067 87.8677 12.58C88.0277 12.54 88.181 12.52 88.3277 12.52C88.4877 12.52 88.661 12.5333 88.8477 12.56C89.0477 12.5733 89.2343 12.6133 89.4077 12.68C89.7143 12.7733 89.981 12.9533 90.2077 13.22C90.4477 13.4867 90.5677 13.8733 90.5677 14.38C90.5677 14.5133 90.5543 14.66 90.5277 14.82C90.501 14.9667 90.4543 15.1133 90.3877 15.26C90.2143 15.7 89.9477 16.12 89.5877 16.52C89.241 16.92 88.8743 17.2 88.4877 17.36C88.381 17.4133 88.2743 17.4533 88.1677 17.48C88.0743 17.4933 87.9743 17.5 87.8677 17.5C87.5877 17.5 87.3343 17.46 87.1077 17.38C86.8943 17.3 86.6943 17.1933 86.5077 17.06L86.3477 16.92L86.2477 17.12C86.1543 17.3733 86.0877 17.5867 86.0477 17.76C86.021 17.9333 86.0077 18.06 86.0077 18.14C86.0077 18.3 86.0143 18.4667 86.0277 18.64C86.041 18.8 86.081 18.9333 86.1477 19.04C86.201 19.1067 86.2677 19.16 86.3477 19.2C86.441 19.24 86.5543 19.26 86.6877 19.26C86.7677 19.26 86.841 19.26 86.9077 19.26C86.9877 19.2467 87.0543 19.2333 87.1077 19.22C87.3477 19.1667 87.541 19.08 87.6877 18.96C87.8477 18.8267 88.0143 18.7133 88.1877 18.62L88.2677 18.58L88.2477 18.52C88.4743 18.4 88.6277 18.3267 88.7077 18.3C88.7877 18.26 88.8477 18.2267 88.8877 18.2C88.941 18.1467 89.001 18.12 89.0677 18.12C89.2543 18.0933 89.4343 18.1467 89.6077 18.28C89.7943 18.4 89.8877 18.5533 89.8877 18.74C89.8877 18.82 89.8277 18.9467 89.7077 19.12C89.601 19.2933 89.461 19.4667 89.2877 19.64C89.1277 19.8 88.961 19.9267 88.7877 20.02C88.7477 20.0333 88.7077 20.0533 88.6677 20.08C88.6277 20.0933 88.5877 20.1133 88.5477 20.14H88.5677C88.4477 20.3 88.3277 20.38 88.2077 20.38H88.0477C87.9943 20.4733 87.821 20.5733 87.5277 20.68C87.2343 20.8 86.9477 20.86 86.6677 20.86ZM87.7077 16.04C87.8277 16.04 87.9343 16.02 88.0277 15.98C88.1343 15.94 88.2343 15.8933 88.3277 15.84C88.6477 15.6133 88.8543 15.32 88.9477 14.96C89.041 14.6 89.0077 14.3267 88.8477 14.14C88.821 14.1 88.7877 14.0733 88.7477 14.06C88.7077 14.0333 88.661 14.02 88.6077 14.02C88.461 14.02 88.2943 14.0667 88.1077 14.16C87.9343 14.2533 87.761 14.3867 87.5877 14.56C87.4143 14.7333 87.2543 14.94 87.1077 15.18L86.8477 15.6C86.8743 15.5867 86.8943 15.58 86.9077 15.58C86.9343 15.5667 86.9543 15.56 86.9677 15.56C87.0877 15.56 87.1677 15.6 87.2077 15.68C87.2477 15.76 87.2943 15.84 87.3477 15.92C87.4143 16 87.5343 16.04 87.7077 16.04ZM91.3952 26.34C91.2618 26.2733 91.1218 26.2333 90.9752 26.22C90.8418 26.22 90.7085 26.1933 90.5752 26.14C90.4018 26.0733 90.2285 25.9667 90.0552 25.82C89.8818 25.6733 89.7218 25.5133 89.5752 25.34C89.5485 25.3 89.5218 25.26 89.4952 25.22C89.4685 25.18 89.4418 25.14 89.4152 25.1C89.4018 25.06 89.3885 25.02 89.3752 24.98C89.3485 24.94 89.3285 24.9 89.3152 24.86C89.2485 24.8333 89.1952 24.7467 89.1552 24.6C89.1018 24.4533 89.0618 24.2933 89.0352 24.12C88.9952 23.96 88.9552 23.84 88.9152 23.76C88.9818 23.6133 89.0552 23.4667 89.1352 23.32C89.2018 23.1733 89.2752 23.0333 89.3552 22.9C89.4352 22.8867 89.5152 22.8733 89.5952 22.86C89.6885 22.8467 89.7752 22.8333 89.8552 22.82C90.1352 22.7667 90.3018 22.86 90.3552 23.1C90.4218 23.3533 90.4885 23.6133 90.5552 23.88C90.6085 24.08 90.6818 24.2533 90.7752 24.4C90.8685 24.56 91.0352 24.6533 91.2752 24.68C91.5818 24.6933 91.8352 24.5867 92.0352 24.36C92.2485 24.1467 92.4218 23.8867 92.5552 23.58C92.7018 23.2733 92.8152 23.0067 92.8952 22.78C92.9485 22.66 93.0152 22.5 93.0952 22.3C93.1885 22.1133 93.2685 21.92 93.3352 21.72C93.4152 21.52 93.4552 21.3533 93.4552 21.22C93.4552 21.1933 93.4552 21.1333 93.4552 21.04C93.4685 20.96 93.4818 20.8733 93.4952 20.78C93.5485 20.4867 93.5618 20.26 93.5352 20.1C93.5085 19.94 93.4818 19.7667 93.4552 19.58C93.4552 19.54 93.4485 19.5 93.4352 19.46C93.4352 19.4067 93.4285 19.3533 93.4152 19.3C93.4152 19.2467 93.4152 19.1933 93.4152 19.14C93.3352 19.0067 93.2552 18.8733 93.1752 18.74C93.1085 18.6067 93.0218 18.4867 92.9152 18.38C92.9152 18.2333 92.9085 18.0867 92.8952 17.94C92.8952 17.7933 92.8952 17.6533 92.8952 17.52C92.9752 17.48 93.0485 17.4333 93.1152 17.38C93.1818 17.3133 93.2485 17.2667 93.3152 17.24C93.6085 17.1333 93.9218 16.98 94.2552 16.78C94.5885 16.5667 94.8952 16.32 95.1752 16.04C95.4552 15.7467 95.6552 15.44 95.7752 15.12C95.8152 14.9867 95.8485 14.8533 95.8752 14.72C95.9018 14.5867 95.9018 14.4533 95.8752 14.32C95.7818 14.3333 95.6885 14.3667 95.5952 14.42C95.2352 14.5533 94.9485 14.7333 94.7352 14.96C94.5352 15.1733 94.3485 15.4133 94.1752 15.68C94.0018 15.9467 93.7818 16.2133 93.5152 16.48C93.4218 16.48 93.3285 16.48 93.2352 16.48C93.1418 16.4667 93.0485 16.46 92.9552 16.46C92.7018 16.3933 92.5218 16.2733 92.4152 16.1C92.3085 15.9133 92.2085 15.7133 92.1152 15.5C92.2485 15.34 92.3485 15.1667 92.4152 14.98C92.4818 14.7933 92.5752 14.6267 92.6952 14.48C92.8952 14.24 93.1085 14 93.3352 13.76C93.5618 13.5067 93.8018 13.2933 94.0552 13.12C94.5752 12.7733 95.0552 12.58 95.4952 12.54C95.9485 12.5 96.3418 12.5733 96.6752 12.76C97.0218 12.9333 97.2818 13.1933 97.4552 13.54C97.6152 13.82 97.7018 14.1467 97.7152 14.52C97.7418 14.88 97.6885 15.2667 97.5552 15.68C97.4218 16.0933 97.1885 16.5067 96.8552 16.92C96.6685 17.1733 96.4418 17.4067 96.1752 17.62C95.9085 17.82 95.5418 18.0867 95.0752 18.42C95.1418 18.7667 95.2018 19.1133 95.2552 19.46C95.3218 19.7933 95.3685 20.1467 95.3952 20.52C95.4218 20.8 95.3885 21.1667 95.2952 21.62C95.2018 22.0867 95.0552 22.58 94.8552 23.1C94.6685 23.62 94.4218 24.1133 94.1152 24.58C93.8085 25.06 93.4552 25.46 93.0552 25.78C92.8285 25.9533 92.5685 26.08 92.2752 26.16C91.9818 26.2533 91.6885 26.3133 91.3952 26.34ZM100.185 20.36C100.011 20.3467 99.8112 20.32 99.5845 20.28C99.3712 20.24 99.1845 20.16 99.0245 20.04C98.8645 19.92 98.7845 19.7467 98.7845 19.52C98.7845 19.4133 98.7912 19.3133 98.8045 19.22C98.8179 19.1267 98.8512 19.04 98.9045 18.96C98.9179 18.9333 98.9312 18.9133 98.9445 18.9C98.9579 18.8867 98.9712 18.8733 98.9845 18.86C98.9712 18.7933 98.9579 18.7267 98.9445 18.66C98.9445 18.5933 98.9512 18.5267 98.9645 18.46C99.0312 18.2867 99.0712 18.1267 99.0845 17.98C99.0979 17.82 99.1312 17.6533 99.1845 17.48C99.1979 17.4533 99.2045 17.4267 99.2045 17.4C99.2045 17.3733 99.2112 17.3533 99.2245 17.34C99.3045 17.06 99.3779 16.7733 99.4445 16.48C99.5112 16.1867 99.6112 15.9133 99.7445 15.66C99.9845 15.18 100.205 14.7 100.405 14.22C100.618 13.7267 100.825 13.2333 101.025 12.74C101.105 12.54 101.198 12.4 101.305 12.32C101.411 12.24 101.525 12.2 101.645 12.2C101.885 12.2 102.125 12.3133 102.365 12.54C102.605 12.7533 102.791 12.9733 102.925 13.2C102.791 13.4533 102.645 13.7133 102.485 13.98C102.325 14.2333 102.171 14.4933 102.025 14.76C101.878 15.0133 101.765 15.28 101.685 15.56C101.871 15.5733 102.051 15.5667 102.225 15.54C102.398 15.5133 102.578 15.5133 102.765 15.54C102.991 15.5533 103.218 15.54 103.445 15.5C103.671 15.4467 103.891 15.4333 104.105 15.46C104.145 15.2867 104.205 15.0667 104.285 14.8C104.365 14.52 104.465 14.2333 104.585 13.94C104.705 13.6467 104.838 13.3867 104.985 13.16C105.145 12.9333 105.311 12.7867 105.485 12.72C105.698 12.64 105.865 12.6467 105.985 12.74C106.105 12.8333 106.238 12.9333 106.385 13.04C106.625 13.2133 106.771 13.3533 106.825 13.46C106.891 13.5667 106.885 13.6867 106.805 13.82C106.738 13.94 106.631 14.12 106.485 14.36C106.391 14.5067 106.318 14.6733 106.265 14.86C106.225 15.0333 106.151 15.2 106.045 15.36C106.018 15.4 105.965 15.52 105.885 15.72C105.818 15.92 105.731 16.1667 105.625 16.46C105.518 16.74 105.418 17.0267 105.325 17.32C105.231 17.6 105.151 17.8533 105.085 18.08C105.018 18.2933 104.978 18.4267 104.965 18.48C104.938 18.6533 104.911 18.8267 104.885 19C104.858 19.1733 104.838 19.3533 104.825 19.54C104.811 19.7533 104.745 19.9067 104.625 20C104.505 20.08 104.358 20.12 104.185 20.12C104.011 20.12 103.838 20.0867 103.665 20.02C103.491 19.9533 103.351 19.88 103.245 19.8C103.138 19.7067 103.058 19.6 103.005 19.48C102.965 19.36 102.945 19.2333 102.945 19.1C102.945 18.86 102.991 18.62 103.085 18.38C103.178 18.14 103.251 17.9533 103.305 17.82C103.331 17.7133 103.365 17.6133 103.405 17.52C103.458 17.4133 103.498 17.3067 103.525 17.2C103.151 17.16 102.771 17.1533 102.385 17.18C102.011 17.2067 101.631 17.24 101.245 17.28C101.165 17.44 101.091 17.6267 101.025 17.84C100.971 18.0533 100.918 18.28 100.865 18.52C100.825 18.76 100.771 18.9933 100.705 19.22C100.665 19.38 100.618 19.5333 100.565 19.68C100.525 19.8133 100.471 19.94 100.405 20.06C100.338 20.18 100.265 20.28 100.185 20.36ZM111.425 20.4C110.971 20.52 110.638 20.5733 110.425 20.56C110.225 20.56 110.018 20.4733 109.805 20.3C109.738 20.2333 109.665 20.16 109.585 20.08C109.505 20 109.458 19.8533 109.445 19.64C109.431 19.5467 109.485 19.4333 109.605 19.3C109.738 19.1533 109.931 19.0933 110.185 19.12C110.318 19.1867 110.498 19.2067 110.725 19.18C110.951 19.1533 111.185 19.08 111.425 18.96C111.678 18.84 111.911 18.6733 112.125 18.46C112.391 18.14 112.605 17.84 112.765 17.56C112.925 17.2667 113.011 17.0333 113.025 16.86C113.011 16.78 112.991 16.7067 112.965 16.64C112.938 16.5733 112.898 16.5067 112.845 16.44C112.605 16.52 112.411 16.6133 112.265 16.72C112.131 16.8133 111.998 16.9133 111.865 17.02C111.451 17.3533 111.145 17.62 110.945 17.82C110.758 18.0067 110.611 18.18 110.505 18.34C110.398 18.5 110.265 18.7 110.105 18.94C109.998 19.1133 109.871 19.2733 109.725 19.42C109.578 19.5533 109.478 19.6533 109.425 19.72C109.345 20 109.178 20.1667 108.925 20.22C108.591 20.1533 108.351 20.04 108.205 19.88C108.071 19.7067 108.031 19.4533 108.085 19.12C108.111 18.9333 108.165 18.68 108.245 18.36C108.338 18.0267 108.418 17.7733 108.485 17.6C108.871 16.3467 109.251 15.3267 109.625 14.54C110.011 13.7533 110.265 13.1733 110.385 12.8L110.705 12.6C110.931 12.6133 111.131 12.68 111.305 12.8C111.478 12.9067 111.585 13.14 111.625 13.5C111.625 13.5667 111.571 13.72 111.465 13.96C111.371 14.2 111.258 14.48 111.125 14.8C110.991 15.1067 110.865 15.4 110.745 15.68C110.638 15.9467 110.558 16.1467 110.505 16.28C110.465 16.3867 110.498 16.3933 110.605 16.3C110.725 16.1933 110.898 16.04 111.125 15.84C111.298 15.6933 111.465 15.58 111.625 15.5C111.785 15.4067 111.918 15.34 112.025 15.3C112.211 15.22 112.391 15.1733 112.565 15.16C112.751 15.1467 112.891 15.1333 112.985 15.12C113.438 15.1333 113.765 15.22 113.965 15.38C114.178 15.54 114.311 15.72 114.365 15.92C114.431 16.12 114.465 16.2867 114.465 16.42C114.531 16.6333 114.565 16.8467 114.565 17.06C114.578 17.2733 114.558 17.4867 114.505 17.7C114.465 17.8067 114.378 17.9733 114.245 18.2C114.111 18.4133 113.958 18.6333 113.785 18.86C113.625 19.0867 113.451 19.26 113.265 19.38C113.145 19.5 112.965 19.6333 112.725 19.78C112.498 19.9267 112.265 20.06 112.025 20.18C111.785 20.2867 111.585 20.36 111.425 20.4ZM115.965 20.74C115.565 20.7133 115.265 20.6333 115.065 20.5C114.878 20.3533 114.731 20.1 114.625 19.74C114.625 19.4467 114.651 19.2 114.705 19C114.771 18.7867 114.825 18.5867 114.865 18.4C114.971 17.9333 115.071 17.5933 115.165 17.38C115.258 17.1533 115.365 16.8933 115.485 16.6C115.551 16.4533 115.618 16.2867 115.685 16.1C115.751 15.9133 115.811 15.7333 115.865 15.56C115.931 15.3467 115.985 15.1533 116.025 14.98C116.078 14.7933 116.131 14.6133 116.185 14.44C116.251 14.2133 116.311 13.9867 116.365 13.76C116.418 13.5333 116.471 13.2933 116.525 13.04C116.751 12.8 116.991 12.7 117.245 12.74C117.498 12.78 117.771 12.9667 118.065 13.3C118.171 13.5533 118.225 13.76 118.225 13.92C118.238 14.08 118.205 14.26 118.125 14.46C118.098 14.5267 118.051 14.6533 117.985 14.84C117.918 15.0133 117.838 15.2267 117.745 15.48C117.665 15.72 117.571 15.98 117.465 16.26C117.345 16.6067 117.225 16.96 117.105 17.32C116.998 17.6667 116.905 17.9733 116.825 18.24C116.745 18.4933 116.691 18.6667 116.665 18.76C116.585 18.9733 116.525 19.1667 116.485 19.34C116.445 19.5133 116.405 19.74 116.365 20.02C116.391 20.1267 116.371 20.2467 116.305 20.38C116.251 20.5133 116.138 20.6333 115.965 20.74ZM122.719 20.1C122.319 20.3267 121.893 20.46 121.439 20.5C120.999 20.5267 120.586 20.4667 120.199 20.32C119.813 20.16 119.499 19.9267 119.259 19.62C119.126 19.4467 118.999 19.1733 118.879 18.8C118.759 18.4133 118.739 17.8933 118.819 17.24C118.899 16.6267 119.086 16.0067 119.379 15.38C119.686 14.7533 120.059 14.2 120.499 13.72C120.939 13.24 121.419 12.9133 121.939 12.74C122.126 12.6733 122.313 12.6267 122.499 12.6C122.699 12.56 122.959 12.5533 123.279 12.58C123.586 12.62 123.859 12.7 124.099 12.82C124.339 12.9267 124.513 13.0467 124.619 13.18C124.833 13.3933 124.973 13.6 125.039 13.8C125.106 14 125.133 14.1933 125.119 14.38C125.053 14.8067 124.859 15.2667 124.539 15.76C124.233 16.2533 123.799 16.62 123.239 16.86C123.013 16.9533 122.746 17.0133 122.439 17.04C122.133 17.0667 121.713 17.0267 121.179 16.92C120.859 16.8533 120.646 16.8867 120.539 17.02C120.446 17.1533 120.406 17.4133 120.419 17.8C120.446 18.04 120.499 18.2533 120.579 18.44C120.673 18.6133 120.839 18.7333 121.079 18.8C121.386 18.8533 121.606 18.86 121.739 18.82C121.873 18.7667 122.039 18.6933 122.239 18.6C122.346 18.5333 122.446 18.46 122.539 18.38C122.646 18.3 122.746 18.22 122.839 18.14C122.946 18.06 123.033 18 123.099 17.96C123.166 17.9067 123.233 17.8733 123.299 17.86C123.366 17.8467 123.433 17.84 123.499 17.84C123.646 17.8533 123.786 17.9333 123.919 18.08C124.053 18.2267 124.139 18.3667 124.179 18.5C124.179 18.6067 124.113 18.76 123.979 18.96C123.846 19.1467 123.666 19.3467 123.439 19.56C123.226 19.76 122.986 19.94 122.719 20.1ZM122.459 15.64C122.553 15.6 122.686 15.5067 122.859 15.36C123.046 15.2133 123.213 15.06 123.359 14.9C123.506 14.7267 123.579 14.5933 123.579 14.5C123.579 14.3533 123.479 14.2267 123.279 14.12C123.093 14.0133 122.846 13.9933 122.539 14.06C122.433 14.0867 122.306 14.16 122.159 14.28C122.013 14.4 121.866 14.54 121.719 14.7C121.573 14.8467 121.446 14.9933 121.339 15.14C121.233 15.2733 121.159 15.38 121.119 15.46C121.173 15.5267 121.279 15.58 121.439 15.62C121.599 15.66 121.773 15.68 121.959 15.68C122.159 15.68 122.326 15.6667 122.459 15.64Z" fill="black"/>
<path d="M60.42 42.82C60.22 42.74 59.9867 42.6267 59.72 42.48C59.4533 42.3467 59.2 42.1667 58.96 41.94C58.72 41.7133 58.5333 41.44 58.4 41.12C58.2667 40.7333 58.1733 40.3533 58.12 39.98C58.08 39.6067 58.0667 39.1733 58.08 38.68C58.08 37.9867 58.1267 37.3867 58.22 36.88C58.3267 36.36 58.4867 35.8333 58.7 35.3C58.7267 35.26 58.7733 35.1467 58.84 34.96C58.92 34.76 59.0067 34.5467 59.1 34.32C59.2067 34.0933 59.2867 33.92 59.34 33.8C59.4467 33.5733 59.6067 33.2733 59.82 32.9C60.0467 32.5133 60.2867 32.14 60.54 31.78C60.9267 31.2067 61.2533 30.74 61.52 30.38C61.7867 30.0067 62.04 29.6933 62.28 29.44C62.5333 29.1867 62.8067 28.94 63.1 28.7C63.4067 28.46 63.7867 28.1867 64.24 27.88C64.5333 27.6667 64.9067 27.5333 65.36 27.48C65.8267 27.4267 66.28 27.5 66.72 27.7C67.16 27.8867 67.4867 28.2467 67.7 28.78C67.8467 29.06 67.9133 29.4133 67.9 29.84C67.8867 30.2533 67.8067 30.7 67.66 31.18C67.5133 31.6467 67.3267 32.0867 67.1 32.5C66.8733 32.9133 66.62 33.2467 66.34 33.5C66.1667 33.66 65.9333 33.6867 65.64 33.58C65.36 33.4733 65.1267 33.3333 64.94 33.16C64.82 32.9333 64.7533 32.8 64.74 32.76C64.74 32.72 64.7667 32.6933 64.82 32.68C64.9 32.5867 65.0067 32.4267 65.14 32.2C65.2733 31.9733 65.4067 31.7333 65.54 31.48C65.6733 31.2133 65.7667 31 65.82 30.84C65.9267 30.28 66 29.9133 66.04 29.74C66.08 29.5533 66.04 29.4 65.92 29.28C65.8667 29.2267 65.7867 29.2067 65.68 29.22C65.5867 29.2333 65.4267 29.3 65.2 29.42C64.8933 29.5533 64.5267 29.8267 64.1 30.24C63.6867 30.64 63.2733 31.12 62.86 31.68C62.3267 32.3867 61.88 33.0133 61.52 33.56C61.16 34.1067 60.8867 34.6667 60.7 35.24C60.6733 35.2933 60.6267 35.3933 60.56 35.54C60.5067 35.6867 60.48 35.76 60.48 35.76C60.4933 35.8133 60.4733 35.9467 60.42 36.16C60.3667 36.36 60.3067 36.5333 60.24 36.68C60.0933 37.2933 60.0067 37.8867 59.98 38.46C59.9533 39.02 59.9867 39.5133 60.08 39.94C60.1867 40.3533 60.34 40.66 60.54 40.86C60.7133 40.98 60.9333 41.02 61.2 40.98C61.4667 40.94 61.7733 40.8467 62.12 40.7C62.4667 40.5533 62.84 40.3933 63.24 40.22C63.56 40.0867 63.8533 39.94 64.12 39.78C64.3867 39.62 64.5867 39.48 64.72 39.36C64.8267 39.28 64.96 39.2 65.12 39.12C65.2933 39.0267 65.44 38.98 65.56 38.98C65.7467 38.9133 65.8867 38.9667 65.98 39.14C66.0733 39.3133 66.12 39.5333 66.12 39.8C66.12 39.9867 65.9867 40.2133 65.72 40.48C65.4533 40.7467 65.16 40.9733 64.84 41.16C64.7333 41.2667 64.5867 41.3667 64.4 41.46C64.2267 41.54 64.0467 41.6133 63.86 41.68C63.58 41.8933 63.2333 42.1 62.82 42.3C62.4067 42.5 61.9867 42.6533 61.56 42.76C61.1467 42.8667 60.7667 42.8867 60.42 42.82ZM67.4642 41.74C67.2909 41.6867 67.1309 41.58 66.9842 41.42C66.8509 41.26 66.7442 41.1467 66.6642 41.08C66.6509 41.04 66.6309 41 66.6042 40.96C66.5909 40.92 66.5776 40.88 66.5642 40.84C66.5642 40.7067 66.5776 40.6133 66.6042 40.56C66.6442 40.5067 66.7309 40.4133 66.8642 40.28C66.9576 40.1333 67.0509 40.0533 67.1442 40.04C67.2376 40.0267 67.3242 40.0333 67.4042 40.06C67.6709 39.86 67.9242 39.6733 68.1642 39.5C68.4176 39.3133 68.6176 39.1133 68.7642 38.9C68.9509 38.62 69.1309 38.3333 69.3042 38.04C69.4909 37.7467 69.6709 37.4533 69.8442 37.16C69.9109 37.04 69.9842 36.9 70.0642 36.74C70.1442 36.58 70.2242 36.42 70.3042 36.26C70.3842 36.0867 70.4509 35.94 70.5042 35.82C70.3709 35.7933 70.2776 35.7667 70.2242 35.74C70.1709 35.7 70.1042 35.6533 70.0242 35.6C69.9842 35.4533 69.9309 35.2933 69.8642 35.12C69.8109 34.9467 69.7776 34.8133 69.7642 34.72C69.7642 34.3867 69.9242 34.18 70.2442 34.1C70.6442 34.0067 70.9909 33.9467 71.2842 33.92C71.5776 33.8933 71.8642 33.8467 72.1442 33.78C72.4109 33.7133 72.6909 33.6933 72.9842 33.72C73.2776 33.7333 73.5509 33.7933 73.8042 33.9C73.9376 33.9533 74.0576 34.0267 74.1642 34.12C74.2709 34.2133 74.3709 34.34 74.4642 34.5C74.6109 34.7133 74.6976 34.9467 74.7242 35.2C74.7642 35.4533 74.7776 35.68 74.7642 35.88C74.7642 36.0667 74.7709 36.1867 74.7842 36.24C74.7442 36.3867 74.6842 36.6133 74.6042 36.92C74.5242 37.2267 74.4309 37.5533 74.3242 37.9C74.2309 38.2467 74.1376 38.56 74.0442 38.84C73.9642 39.1067 73.9109 39.2867 73.8842 39.38C73.8309 39.5933 73.7576 39.8133 73.6642 40.04C73.5842 40.2533 73.5309 40.46 73.5042 40.66C73.4509 40.94 73.3376 41.1333 73.1642 41.24C72.9909 41.3333 72.8376 41.4133 72.7042 41.48C72.5576 41.5333 72.4242 41.52 72.3042 41.44C72.1842 41.36 72.0709 41.2733 71.9642 41.18C71.8709 40.9267 71.8176 40.74 71.8042 40.62C71.8042 40.4867 71.8442 40.3067 71.9242 40.08C71.9642 39.9733 72.0376 39.7333 72.1442 39.36C72.2509 38.9867 72.3709 38.5667 72.5042 38.1C72.6376 37.6333 72.7642 37.2067 72.8842 36.82C73.0042 36.42 73.0842 36.14 73.1242 35.98C73.1509 35.8467 73.1709 35.7333 73.1842 35.64C73.1976 35.5333 73.1976 35.4333 73.1842 35.34C73.0909 35.3133 72.9576 35.3 72.7842 35.3C72.6109 35.3 72.4509 35.3133 72.3042 35.34C72.2776 35.3533 72.2442 35.36 72.2042 35.36C72.1776 35.36 72.1509 35.3667 72.1242 35.38C72.0709 35.62 72.0042 35.86 71.9242 36.1C71.8442 36.3267 71.7442 36.5733 71.6242 36.84C71.5176 37.0933 71.3842 37.38 71.2242 37.7C71.0776 38.02 70.8976 38.38 70.6842 38.78C70.5509 39.0467 70.4176 39.2867 70.2842 39.5C70.1509 39.7133 70.0109 39.9133 69.8642 40.1L69.6242 40.42C69.5442 40.5 69.4576 40.5867 69.3642 40.68C69.2709 40.7733 69.1842 40.86 69.1042 40.94C69.0242 41.0067 68.9576 41.0667 68.9042 41.12L68.2842 41.6C68.1642 41.6933 68.0376 41.74 67.9042 41.74C67.7709 41.74 67.6242 41.74 67.4642 41.74ZM75.9214 41.08C75.8681 40.9733 75.7481 40.8667 75.5614 40.76C75.3881 40.6533 75.3014 40.5733 75.3014 40.52C75.3014 40.4667 75.2681 40.3867 75.2014 40.28C75.1481 40.16 75.0947 40.0733 75.0414 40.02C74.9747 39.94 74.9947 39.7467 75.1014 39.44C75.2081 39.12 75.3681 38.7333 75.5814 38.28C75.7947 37.8267 76.0281 37.3667 76.2814 36.9C76.3881 36.7933 76.4947 36.6533 76.6014 36.48C76.7081 36.3067 76.7881 36.1933 76.8414 36.14C76.8414 36.0867 76.8614 36.04 76.9014 36C76.9414 35.9467 76.9881 35.92 77.0414 35.92L77.2014 35.6C77.2281 35.5467 77.3081 35.44 77.4414 35.28C77.5881 35.12 77.7614 34.9467 77.9614 34.76C78.1614 34.56 78.3614 34.3733 78.5614 34.2C78.7747 34.0267 78.9481 33.9 79.0814 33.82C79.3614 33.6333 79.6481 33.5467 79.9414 33.56C80.2481 33.5733 80.5081 33.6667 80.7214 33.84C80.7614 33.88 80.8481 33.96 80.9814 34.08C81.1281 34.2 81.2881 34.3333 81.4614 34.48C81.6481 34.6267 81.8081 34.76 81.9414 34.88L82.6814 35.54L82.3414 36.54C82.1681 37.0733 82.1214 37.54 82.2014 37.94C82.2814 38.34 82.4081 38.6867 82.5814 38.98C82.6481 39.1267 82.7347 39.24 82.8414 39.32C82.9614 39.4 83.1147 39.4533 83.3014 39.48C83.4081 39.4933 83.5081 39.5333 83.6014 39.6C83.6947 39.6667 83.7414 39.7733 83.7414 39.92C83.7414 40.24 83.6814 40.4733 83.5614 40.62C83.4547 40.7533 83.3347 40.8333 83.2014 40.86C82.7614 40.9133 82.3414 40.8667 81.9414 40.72C81.5414 40.5733 81.1814 40.1933 80.8614 39.58C80.8081 39.5 80.7347 39.3533 80.6414 39.14C80.5614 38.9133 80.5147 38.7667 80.5014 38.7C80.4481 38.7667 80.3747 38.8533 80.2814 38.96C80.2014 39.0533 80.1214 39.14 80.0414 39.22C79.0947 40.18 78.2814 40.8067 77.6014 41.1C76.9347 41.38 76.3747 41.3733 75.9214 41.08ZM77.0214 39.42C77.1147 39.4333 77.2614 39.3867 77.4614 39.28C77.6614 39.16 77.9281 38.9667 78.2614 38.7C78.7147 38.3133 79.0881 37.9933 79.3814 37.74C79.6747 37.4867 79.9614 37.16 80.2414 36.76L80.6814 36.04C80.5481 35.7333 80.4281 35.5333 80.3214 35.44C80.2147 35.3467 80.1081 35.3 80.0014 35.3C79.8281 35.3 79.6214 35.4133 79.3814 35.64C79.1414 35.8533 78.8681 36.1733 78.5614 36.6C78.2681 37.0133 77.9347 37.5333 77.5614 38.16C77.3881 38.4533 77.2547 38.74 77.1614 39.02C77.0681 39.2867 77.0214 39.42 77.0214 39.42ZM84.5672 40.1C84.5139 39.9933 84.5005 39.8733 84.5272 39.74C84.5539 39.5933 84.4939 39.4667 84.3472 39.36C84.4139 38.96 84.4672 38.6 84.5072 38.28C84.5605 37.96 84.6272 37.66 84.7072 37.38C84.7739 37.18 84.8472 36.9867 84.9272 36.8C85.0205 36.6133 85.1339 36.42 85.2672 36.22C85.4139 36.02 85.5805 35.8133 85.7672 35.6C85.8205 35.5333 85.8739 35.4733 85.9272 35.42C85.9939 35.3667 86.0539 35.3133 86.1072 35.26C86.1339 35.22 86.1605 35.18 86.1872 35.14C86.2139 35.1 86.2405 35.0667 86.2672 35.04C86.4272 34.84 86.6139 34.6667 86.8272 34.52C87.0539 34.36 87.2872 34.2267 87.5272 34.12C87.7805 34.0133 88.0205 33.9267 88.2472 33.86C88.3805 33.82 88.5005 33.7867 88.6072 33.76C88.7139 33.7333 88.8205 33.72 88.9272 33.72C89.0339 33.72 89.1539 33.7333 89.2872 33.76C89.2872 33.6933 89.2672 33.6133 89.2272 33.52C89.2005 33.4133 89.1872 33.3133 89.1872 33.22C89.2139 33.1533 89.2205 33.0733 89.2072 32.98C89.2072 32.8733 89.1939 32.7867 89.1672 32.72C89.0605 32.5867 89.0072 32.4267 89.0072 32.24C89.0205 32.0533 88.9539 31.88 88.8072 31.72C88.8339 31.48 88.7672 31.2733 88.6072 31.1C88.4605 30.9133 88.2605 30.7733 88.0072 30.68C87.7672 30.5733 87.5139 30.52 87.2472 30.52C87.0739 30.52 86.9072 30.54 86.7472 30.58C86.6005 30.6067 86.4672 30.6667 86.3472 30.76C86.2272 30.7733 86.0605 30.7867 85.8472 30.8C85.6472 30.8 85.4939 30.7533 85.3872 30.66C85.1339 30.38 84.9805 30.16 84.9272 30C84.8739 29.8267 84.8872 29.68 84.9672 29.56C85.0739 29.4267 85.2205 29.3133 85.4072 29.22C85.6072 29.1133 85.8139 28.9867 86.0272 28.84C86.1605 28.8933 86.2672 28.8867 86.3472 28.82C86.4405 28.7533 86.5605 28.7467 86.7072 28.8C86.8939 28.76 87.0672 28.7533 87.2272 28.78C87.3872 28.7933 87.5472 28.82 87.7072 28.86C87.7605 28.8733 87.8072 28.8867 87.8472 28.9C87.9005 28.9 87.9539 28.9067 88.0072 28.92C88.5139 29 88.9672 29.22 89.3672 29.58C89.7805 29.9267 90.0939 30.32 90.3072 30.76C90.3739 30.8933 90.4472 31.04 90.5272 31.2C90.6072 31.3467 90.6739 31.4933 90.7272 31.64C90.7805 31.76 90.8272 31.9467 90.8672 32.2C90.9205 32.4533 90.9605 32.7267 90.9872 33.02C91.0272 33.3 91.0539 33.56 91.0672 33.8C91.0672 33.8933 91.0672 33.98 91.0672 34.06C91.0672 34.14 91.0605 34.2133 91.0472 34.28C90.8872 35.2267 90.6205 36.2067 90.2472 37.22C89.8872 38.2333 89.4605 39.1533 88.9672 39.98C88.8205 40.2333 88.6339 40.4667 88.4072 40.68C88.1939 40.8933 87.9539 41.0733 87.6872 41.22C87.4472 41.3533 87.1872 41.4533 86.9072 41.52C86.6405 41.6 86.3672 41.6467 86.0872 41.66C85.8872 41.5 85.6872 41.3533 85.4872 41.22C85.2872 41.0733 85.1072 40.9133 84.9472 40.74C84.7872 40.5667 84.6605 40.3533 84.5672 40.1ZM86.3472 40.02C86.4139 39.9933 86.4739 39.9667 86.5272 39.94C86.5939 39.9133 86.6405 39.8733 86.6672 39.82C86.8672 39.6733 87.0739 39.4533 87.2872 39.16C87.5139 38.8667 87.7205 38.56 87.9072 38.24C88.1072 37.92 88.2472 37.6533 88.3272 37.44C88.3672 37.32 88.4205 37.1667 88.4872 36.98C88.5539 36.7933 88.6205 36.66 88.6872 36.58C88.7805 36.4067 88.8605 36.2133 88.9272 36C88.9939 35.7867 89.0205 35.5867 89.0072 35.4C88.4739 35.6133 88.0072 35.9067 87.6072 36.28C87.2205 36.64 86.8872 37.0733 86.6072 37.58C86.5672 37.86 86.4872 38.1267 86.3672 38.38C86.2605 38.6333 86.1939 38.9067 86.1672 39.2C86.1139 39.32 86.0805 39.4267 86.0672 39.52C86.0672 39.6133 86.0805 39.7267 86.1072 39.86C86.1339 39.9 86.1672 39.9333 86.2072 39.96C86.2472 39.9867 86.2939 40.0067 86.3472 40.02ZM94.1147 41.34C93.8347 41.3933 93.6214 41.38 93.4747 41.3C93.3414 41.2067 93.2014 41.0933 93.0547 40.96C92.8414 40.8533 92.648 40.7067 92.4747 40.52C92.3014 40.32 92.168 40.1133 92.0747 39.9C91.9814 39.6867 91.9414 39.52 91.9547 39.4C91.9947 38.9333 92.1014 38.4267 92.2747 37.88C92.4614 37.3333 92.6947 36.8 92.9747 36.28C93.268 35.76 93.5947 35.3 93.9547 34.9C94.328 34.4867 94.728 34.1867 95.1547 34C95.4214 33.8933 95.708 33.8533 96.0147 33.88C96.3214 33.9067 96.528 34.0333 96.6347 34.26C96.8347 34.6467 96.788 34.8933 96.4947 35C96.4547 35 96.408 35.02 96.3547 35.06C96.3014 35.0867 96.2747 35.1267 96.2747 35.18C96.328 35.2067 96.4747 35.2133 96.7147 35.2C96.9547 35.1733 97.1947 35.1333 97.4347 35.08C97.688 35.0133 97.8547 34.9467 97.9347 34.88C98.0147 34.84 98.0747 34.82 98.1147 34.82C98.1547 34.82 98.2547 34.8333 98.4147 34.86C98.6414 34.9267 98.7547 35.0067 98.7547 35.1C98.7547 35.1533 98.7747 35.24 98.8147 35.36C98.8547 35.4667 98.9014 35.52 98.9547 35.52C99.048 35.5333 99.068 35.6267 99.0147 35.8C98.9747 35.9733 98.8214 36.1533 98.5547 36.34C98.3014 36.5 98.1414 36.6067 98.0747 36.66C98.0214 36.7 98.0147 36.7933 98.0547 36.94C98.1614 37.1933 98.1547 37.5 98.0347 37.86C97.9147 38.22 97.7147 38.5933 97.4347 38.98C97.1547 39.3667 96.8214 39.7333 96.4347 40.08C96.0614 40.4133 95.668 40.7 95.2547 40.94C94.8547 41.1667 94.4747 41.3 94.1147 41.34ZM94.1747 39.66C94.228 39.66 94.3214 39.6333 94.4547 39.58C94.588 39.5133 94.6947 39.46 94.7747 39.42C94.828 39.3667 94.8947 39.3067 94.9747 39.24C95.068 39.16 95.1414 39.1133 95.1947 39.1C95.248 39.1 95.2814 39.08 95.2947 39.04C95.308 38.9867 95.3547 38.8867 95.4347 38.74C95.5147 38.58 95.6747 38.3467 95.9147 38.04C96.1814 37.7467 96.3547 37.5133 96.4347 37.34C96.5147 37.1533 96.5214 36.9533 96.4547 36.74C96.4414 36.6867 96.4014 36.6533 96.3347 36.64C96.2814 36.6267 96.208 36.5933 96.1147 36.54C95.9814 36.54 95.888 36.5733 95.8347 36.64C95.7947 36.6933 95.7014 36.66 95.5547 36.54L95.2347 36.14L94.8947 36.48C94.6814 36.6933 94.488 36.96 94.3147 37.28C94.1547 37.6 94.028 37.9267 93.9347 38.26C93.8414 38.5933 93.7814 38.8867 93.7547 39.14C93.7414 39.34 93.7747 39.4733 93.8547 39.54C93.9347 39.6067 94.0414 39.6467 94.1747 39.66ZM102.746 41.32C102.572 41.4 102.372 41.4333 102.146 41.42C101.919 41.4067 101.612 41.3333 101.226 41.2C101.199 41.2 101.106 41.14 100.946 41.02C100.786 40.9 100.626 40.76 100.466 40.6C100.306 40.44 100.199 40.3067 100.146 40.2C99.9324 39.8933 99.8658 39.44 99.9458 38.84C100.039 38.24 100.252 37.52 100.586 36.68C100.679 36.48 100.819 36.2267 101.006 35.92C101.206 35.6133 101.399 35.3333 101.586 35.08C101.786 34.8133 101.926 34.66 102.006 34.62C102.006 34.62 102.079 34.5933 102.226 34.54C102.372 34.4867 102.559 34.4 102.786 34.28C102.852 34.2533 102.966 34.22 103.126 34.18C103.299 34.14 103.472 34.1067 103.646 34.08C103.832 34.04 103.959 34.0267 104.026 34.04C104.292 34.0533 104.566 34.1533 104.846 34.34C105.139 34.5133 105.379 34.72 105.566 34.96C105.752 35.1867 105.812 35.3867 105.746 35.56C105.746 35.5867 105.706 35.6733 105.626 35.82C105.559 35.9533 105.486 36.0933 105.406 36.24C105.326 36.3733 105.259 36.4733 105.206 36.54C105.139 36.62 105.019 36.6533 104.846 36.64C104.686 36.6267 104.539 36.5733 104.406 36.48C104.272 36.3867 104.199 36.26 104.186 36.1C104.159 35.9933 104.059 35.8933 103.886 35.8C103.726 35.7067 103.646 35.66 103.646 35.66C103.539 35.66 103.399 35.7667 103.226 35.98C103.052 36.1933 102.872 36.4333 102.686 36.7C102.446 36.94 102.272 37.2 102.166 37.48C102.072 37.7467 102.006 38 101.966 38.24C101.939 38.4667 101.906 38.64 101.866 38.76C101.812 38.8933 101.812 39.06 101.866 39.26C101.919 39.46 101.986 39.5733 102.066 39.6C102.186 39.6133 102.346 39.6067 102.546 39.58C102.759 39.54 102.979 39.4933 103.206 39.44C103.446 39.3733 103.686 39.3067 103.926 39.24C104.166 39.16 104.379 39.08 104.566 39C104.819 38.84 105.039 38.78 105.226 38.82C105.412 38.8467 105.552 38.8733 105.646 38.9C105.792 38.9533 105.866 39.0667 105.866 39.24C105.866 39.4133 105.806 39.6 105.686 39.8C105.566 39.9867 105.392 40.14 105.166 40.26C104.952 40.3667 104.759 40.4867 104.586 40.62C104.426 40.74 104.346 40.8333 104.346 40.9C104.292 40.9 104.232 40.92 104.166 40.96C104.112 40.9867 104.066 40.9933 104.026 40.98C103.999 40.98 103.892 41 103.706 41.04C103.519 41.08 103.326 41.1267 103.126 41.18C102.939 41.2333 102.812 41.28 102.746 41.32ZM108.471 40.84C108.218 40.7333 108.011 40.5733 107.851 40.36C107.705 40.1333 107.631 39.86 107.631 39.54C107.631 39.4067 107.658 39.18 107.711 38.86C107.765 38.54 107.838 38.18 107.931 37.78C108.025 37.38 108.118 37.0067 108.211 36.66C108.345 36.42 108.431 36.18 108.471 35.94C108.525 35.7 108.551 35.5533 108.551 35.5C108.578 35.34 108.625 35.1267 108.691 34.86C108.758 34.5933 108.825 34.3533 108.891 34.14C108.971 33.9133 109.025 33.7867 109.051 33.76C109.118 33.6933 109.231 33.6533 109.391 33.64C109.551 33.6267 109.711 33.6467 109.871 33.7C110.031 33.74 110.138 33.8267 110.191 33.96C110.338 34.12 110.418 34.36 110.431 34.68C110.458 35 110.398 35.3733 110.251 35.8C110.131 36.0667 110.011 36.38 109.891 36.74C109.771 37.1 109.665 37.4333 109.571 37.74C109.491 38.0333 109.445 38.2333 109.431 38.34L108.711 38.32C108.938 38.1067 109.151 37.8867 109.351 37.66C109.551 37.42 109.698 37.2333 109.791 37.1C110.018 36.7933 110.211 36.54 110.371 36.34C110.545 36.1267 110.765 35.8733 111.031 35.58C111.298 35.2733 111.585 35.06 111.891 34.94C112.198 34.8067 112.425 34.74 112.571 34.74C112.865 34.7933 113.125 34.9467 113.351 35.2C113.591 35.44 113.738 35.8 113.791 36.28C113.791 36.4667 113.771 36.6867 113.731 36.94C113.705 37.1933 113.691 37.32 113.691 37.32C113.691 37.32 113.798 37.1867 114.011 36.92C114.238 36.6533 114.538 36.3533 114.911 36.02C115.165 35.8333 115.411 35.7267 115.651 35.7C115.891 35.66 116.105 35.74 116.291 35.94C116.638 36.1267 116.891 36.4533 117.051 36.92C117.211 37.3867 117.265 37.9133 117.211 38.5C117.171 38.8467 117.171 39.1267 117.211 39.34C117.265 39.54 117.318 39.72 117.371 39.88C117.545 40.12 117.571 40.3333 117.451 40.52C117.331 40.6933 117.225 40.78 117.131 40.78C116.998 40.78 116.798 40.7533 116.531 40.7C116.265 40.6467 116.018 40.5533 115.791 40.42C115.578 40.2867 115.471 40.1067 115.471 39.88V38.64C115.471 38.3467 115.458 38.1333 115.431 38C115.418 37.8533 115.385 37.76 115.331 37.72C115.185 37.64 115.005 37.7 114.791 37.9C114.578 38.1 114.345 38.3867 114.091 38.76C113.851 39.12 113.591 39.5267 113.311 39.98C113.058 40.3933 112.851 40.6467 112.691 40.74C112.531 40.82 112.378 40.8133 112.231 40.72C111.938 40.6267 111.751 40.5 111.671 40.34C111.605 40.1667 111.598 39.9733 111.651 39.76C111.718 39.5333 111.798 39.24 111.891 38.88C111.998 38.52 112.098 38.1733 112.191 37.84C112.285 37.4933 112.345 37.24 112.371 37.08C112.318 36.9733 112.225 36.94 112.091 36.98C111.971 37.0067 111.845 37.0667 111.711 37.16C111.551 37.2667 111.378 37.38 111.191 37.5C111.018 37.62 110.811 37.8733 110.571 38.26C110.411 38.5133 110.231 38.7933 110.031 39.1C109.831 39.3933 109.645 39.66 109.471 39.9C109.311 40.14 109.178 40.3067 109.071 40.4C108.978 40.64 108.891 40.7933 108.811 40.86C108.731 40.9133 108.618 40.9067 108.471 40.84ZM123.773 41.84C123.533 41.8667 123.319 41.8133 123.133 41.68C122.946 41.5467 122.799 41.4 122.693 41.24C122.559 41.0267 122.459 40.78 122.393 40.5C122.326 40.2067 122.293 39.9333 122.293 39.68C122.293 39.6667 122.286 39.6533 122.273 39.64C122.273 39.6267 122.273 39.62 122.273 39.62C122.273 39.6067 122.266 39.6067 122.253 39.62C122.093 39.7933 121.859 40.0067 121.553 40.26C121.259 40.5 120.946 40.7133 120.613 40.9C120.293 41.0733 120.006 41.1533 119.753 41.14C119.593 41.1267 119.433 41.0533 119.273 40.92C119.126 40.7733 118.993 40.6067 118.873 40.42C118.753 40.2333 118.673 40.0667 118.633 39.92C118.579 39.7067 118.593 39.36 118.673 38.88C118.753 38.3867 118.873 37.84 119.033 37.24C119.206 36.6267 119.406 36.04 119.633 35.48C119.859 34.9067 120.093 34.44 120.333 34.08C120.586 33.7067 120.826 33.52 121.053 33.52C121.253 33.52 121.426 33.6267 121.573 33.84C121.719 34.04 121.826 34.22 121.893 34.38C121.973 34.58 122.013 34.72 122.013 34.8C122.013 34.8667 121.939 34.98 121.793 35.14C121.659 35.2733 121.519 35.4933 121.373 35.8C121.226 36.0933 121.079 36.4267 120.933 36.8C120.786 37.16 120.653 37.5 120.533 37.82C120.426 38.14 120.339 38.3933 120.273 38.58C120.246 38.7267 120.219 38.84 120.193 38.92C120.166 39 120.146 39.0933 120.133 39.2C120.159 39.2 120.186 39.2 120.213 39.2C120.253 39.1867 120.286 39.1733 120.313 39.16C120.566 39.0667 120.826 38.88 121.093 38.6C121.373 38.32 121.646 37.9867 121.913 37.6C122.179 37.2 122.433 36.7933 122.673 36.38C122.926 35.9533 123.166 35.56 123.393 35.2C123.619 34.8267 123.819 34.5267 123.993 34.3C124.179 34.06 124.333 33.94 124.453 33.94C124.586 33.9267 124.746 33.96 124.933 34.04C125.119 34.1067 125.273 34.2067 125.393 34.34C125.526 34.46 125.579 34.6 125.553 34.76C125.499 35.0667 125.359 35.46 125.133 35.94C124.906 36.4067 124.673 36.92 124.433 37.48C124.206 38.04 124.039 38.62 123.933 39.22C123.879 39.5267 123.899 39.8 123.993 40.04C124.086 40.2667 124.226 40.4933 124.413 40.72C124.626 40.9733 124.639 41.22 124.453 41.46C124.279 41.6867 124.053 41.8133 123.773 41.84Z" fill="black"/>
<defs>
<clipPath id="clip0_426_1580">
<rect width="27.4048" height="29.569" fill="white" transform="translate(10.9829 9.29297)"/>
</clipPath>
</defs>
</svg>
