<svg width="64" height="64" viewBox="0 0 64 64" fill="none" xmlns="http://www.w3.org/2000/svg">
<path d="M62 30.5C62.8284 30.5 63.5 31.1716 63.5 32C63.5 32.8284 62.8284 33.5 62 33.5V30.5ZM0.93934 33.0607C0.353553 32.4749 0.353553 31.5251 0.93934 30.9393L10.4853 21.3934C11.0711 20.8076 12.0208 20.8076 12.6066 21.3934C13.1924 21.9792 13.1924 22.9289 12.6066 23.5147L4.12132 32L12.6066 40.4853C13.1924 41.0711 13.1924 42.0208 12.6066 42.6066C12.0208 43.1924 11.0711 43.1924 10.4853 42.6066L0.93934 33.0607ZM62 33.5H2V30.5H62V33.5Z" fill="#483E36"/>
</svg>
