<svg width="64" height="64" viewBox="0 0 64 64" fill="none" xmlns="http://www.w3.org/2000/svg">
<path d="M2 30.5C1.17157 30.5 0.5 31.1716 0.5 32C0.5 32.8284 1.17157 33.5 2 33.5V30.5ZM63.0607 33.0607C63.6464 32.4749 63.6464 31.5251 63.0607 30.9393L53.5147 21.3934C52.9289 20.8076 51.9792 20.8076 51.3934 21.3934C50.8076 21.9792 50.8076 22.9289 51.3934 23.5147L59.8787 32L51.3934 40.4853C50.8076 41.0711 50.8076 42.0208 51.3934 42.6066C51.9792 43.1924 52.9289 43.1924 53.5147 42.6066L63.0607 33.0607ZM2 33.5H62V30.5H2V33.5Z" fill="#483E36"/>
</svg>
